<?xml version="1.0" encoding="utf-8"?>
<!-- Generator: Adobe Illustrator 19.0.0, SVG Export Plug-In . SVG Version: 6.00 Build 0)  -->
<svg version="1.1" id="Layer_1" xmlns="http://www.w3.org/2000/svg" xmlns:xlink="http://www.w3.org/1999/xlink" x="0px" y="0px"
	 viewBox="131 -131 512 512" style="enable-background:new 131 -131 512 512;" xml:space="preserve">
<g id="XMLID_2_">
	<path id="XMLID_10_" d="M289.3,125c-28.9,0.9-52.1,12.1-70.7,34.4h-35.5c-14.9,0-27-3.7-37.2-11.2c-10.2-7.5-14.9-17.6-14.9-31.6
		c0-62.4,11.2-94,33.5-94c0.9,0,4.7,1.9,11.2,5.6c6.5,3.7,14.9,7.4,26.1,11.2c10.2,3.7,21.4,5.6,31.7,5.6c12.1,0,23.3-1.9,35.4-6.5
		C268,45,268,50.6,268,56.2C267.8,81.2,274.4,104.5,289.3,125z M575,294.4c0,21.4-6.5,38.2-19.5,50.3c-13,12.1-29.8,18.6-52.1,18.6
		H270.6c-21.4,0-39.1-6.5-52.1-18.6S199,315.8,199,294.4c0-9.3,0-18.6,0.9-27.9s1.9-18.6,3.7-28.9c1.9-10.2,4.7-20.5,7.4-28.9
		c2.8-9.3,6.5-17.7,11.2-26.1c4.7-8.4,10.2-15.8,16.8-21.4c6.5-5.6,14-11.2,22.3-14c8.4-2.8,18.6-5.6,29.8-5.6
		c1.9,0,5.6,1.9,11.2,5.6c5.6,3.7,12.1,8.4,19.5,13c7.4,4.6,16.8,9.3,28.9,13c12.1,3.7,24.2,5.6,36.3,5.6s24.2-1.9,36.3-5.6
		c12.1-3.7,21.4-8.4,28.9-13s14-9.3,19.5-13c5.6-3.7,9.3-5.6,11.2-5.6c11.2,0,20.5,1.9,29.8,5.6c9.3,3.7,16.8,8.4,22.3,14
		c6.5,5.6,12.1,13,16.8,21.4c4.7,8.4,8.4,16.8,11.2,26.1c2.8,9.3,5.6,18.6,7.4,28.9c1.9,10.2,2.8,20.5,3.7,28.9
		C574.1,275.8,575,285.1,575,294.4z M301.4-45.4c0,18.6-6.5,35.4-19.5,48.4s-29.8,19.5-48.4,19.5S198,16.1,185,3.1
		s-19.5-29.8-19.5-48.4S172-80.7,185-93.8c13-13,29.8-19.5,48.4-19.5s35.4,6.5,48.4,19.5C294.8-80.7,301.4-64.9,301.4-45.4z
		 M489.4,57c0,27.9-10.2,52.1-29.8,72.6s-44.7,29.8-72.6,29.8s-52.1-10.2-72.6-29.8c-20.5-19.5-29.8-44.7-29.8-72.6
		s10.2-52.1,29.8-72.6s43.8-29.8,72.6-29.8s52.1,10.2,72.6,29.8S489.4,28.2,489.4,57z M643,116.6c0,14-4.7,24.2-14.9,31.7
		c-10.2,7.4-22.3,11.2-37.2,11.2h-35.4c-18.6-21.4-41.9-33.5-70.7-34.4c14-20.5,21.4-43.8,21.4-68c0-5.6,0-11.2-0.9-17.7
		c12.1,3.7,23.3,6.5,35.4,6.5c10.2,0,21.4-1.9,31.7-5.6c10.2-3.7,19.5-7.4,26.1-11.2c6.5-3.7,10.2-5.6,11.2-5.6
		C631.8,22.6,643,54.3,643,116.6z M608.6-45.4c0,18.6-6.5,35.4-19.5,48.4s-29.8,19.5-48.4,19.5S505.3,16,492.3,3
		s-19.5-29.8-19.5-48.4s6.5-35.4,19.5-48.4s29.8-19.5,48.4-19.5s35.4,6.5,48.4,19.5C602-80.7,608.6-64.9,608.6-45.4z"/>
</g>
</svg>
