<svg version="1.2" xmlns="http://www.w3.org/2000/svg" viewBox="335.99999999999994 628.0000000000001 2321.0000000000005 741.0000000000001" width="2323" height="742">
	<title>vecteezy_squid-game-series-vector-logo_8770823</title>
	<style>
		.s0 { fill: #000000 } 
	</style>
	<g id="Squid Game logo">
		<g id="&lt;Group&gt;">
			<path id="&lt;Compound Path&gt;" class="s0" d="m2650.3 1362.5h-724.9v-725h724.9zm-649.3-75.6h573.7v-573.8h-573.7z"/>
			<path id="&lt;Compound Path&gt;" class="s0" d="m1851.6 1362.5h-837.1l418.6-725zm-703.2-77.3h569.3l-284.7-493z"/>
			<path id="&lt;Compound Path&gt;" class="s0" d="m711.1 1360.2q-2.4 0-4.8 0c-96.2-1.3-186.3-39.8-253.6-108.6-67.3-68.8-103.9-159.7-103-255.9 0.8-96.2 39-186.4 107.5-254 68.1-67.2 158.2-104.2 253.8-104.2q0.8 0 1.6 0c96.2 0.4 186.6 38.2 254.5 106.4 67.9 68.2 105.3 158.7 105.3 255q0 1.6-0.2 3.1 0.1 1.6 0.1 3.2c-1.7 96.2-40.6 186.1-109.7 253.1-67.9 65.8-157 101.9-251.5 101.9zm-0.1-645.4c-155.4 0-282.6 126.1-284 281.6-1.4 155.9 124.4 284.4 280.3 286.5 156 1.9 285-123.2 287.7-279.1q0-1.2 0.1-2.5-0.1-1.2-0.1-2.4c0-156-126.8-283.4-282.7-284.1q-0.7 0-1.3 0z"/>
		</g>
	</g>
</svg>